<svg xmlns="http://www.w3.org/2000/svg" viewBox="0 0 136.14 45"><path d="M129.87 19.08c-.29-.26-1 .16-1.31.22-.16 0-.28 0-.11-.38.4-.84 1.18-1.47 1.37-2.11a.56.56 0 00-.26-.69 2.88 2.88 0 00-2.83-.3c-.11 0-.13 0 0-.07a3.06 3.06 0 012.52-.15 4.06 4.06 0 01.81-.27 3.51 3.51 0 01.33-1.6c0-.07.09-.07.07 0a5.32 5.32 0 000 2.44.63.63 0 00.52.47 9 9 0 001.47 0 14.34 14.34 0 00-2.58 2.44zm-4.81-5.63a5.54 5.54 0 00-1.15 1.3 3 3 0 00-.68.2c-.13 0-.26 0-.16-.26.39-.84 1.15-1.41 1.34-2a.55.55 0 00-.27-.69 2.89 2.89 0 00-2.82-.31c-.12 0-.13 0 0-.06a3.06 3.06 0 012.52-.16 3.63 3.63 0 01.81-.26 3.44 3.44 0 01.33-1.61c0-.07.09-.07.08 0a5.17 5.17 0 000 2.44.63.63 0 00.53.46 9.59 9.59 0 001 .06 7.56 7.56 0 00-1.53.89zm-2.88 5.76a8.3 8.3 0 00-1.87 3 1.24 1.24 0 00-1.24-1 1.19 1.19 0 00-1.23 1.25 1 1 0 001.45.85c.06 0 .09 0 0 .08a1.94 1.94 0 01-1.17.34c-1.53 0-2.64-1.48-2.64-3.53a6.36 6.36 0 012.32-4.57.47.47 0 01.49-.09 2.33 2.33 0 001.8-.26 7.84 7.84 0 001.66-1.45 6 6 0 00-.17 1.76c0 .17.12 1.16.14 1.25.21.76.76.41.82.34a9.15 9.15 0 00.58-.72 9.21 9.21 0 00-.23 1.19 2.82 2.82 0 01-.71 1.56zm-2.6 3.05a.53.53 0 00-.13-.13c-.16-.09-.34 0-.22.26a.61.61 0 010 .22.4.4 0 01-.38.32c-.27 0-.49-.18-.47-.55a.6.6 0 01.61-.58.67.67 0 01.62.41c.07.07.01.1-.03.05zM113.64 17a1.18 1.18 0 00-1.23 1.25 1 1 0 001.45.85c.07 0 .09 0 0 .08a2 2 0 01-1.17.34c-1.53 0-2.63-1.48-2.63-3.53a6.37 6.37 0 012.31-4.57.47.47 0 01.49-.09 2.33 2.33 0 001.8-.26 8.11 8.11 0 001.67-1.45 5.65 5.65 0 00-.17 1.76c0 .17.11 1.16.14 1.25.2.76.75.4.82.34.21-.23.43-.53.6-.76a10.23 10.23 0 00-.25 1.25 2.84 2.84 0 01-.73 1.54 8.07 8.07 0 00-1.87 3 1.26 1.26 0 00-1.23-1zm.51 1a.37.37 0 00-.13-.12c-.15-.09-.34 0-.22.25a.5.5 0 010 .23.36.36 0 01-.38.31c-.27 0-.49-.18-.47-.54a.61.61 0 01.61-.59.7.7 0 01.63.42c.06.13 0 .16-.04.1zm1.7-10.68a3.12 3.12 0 012.53-.15 3.4 3.4 0 01.8-.26 3.71 3.71 0 01.33-1.61c0-.07.09-.07.08 0a5.35 5.35 0 000 2.45.65.65 0 00.53.46c.2 0 .61.06 1 .06a8 8 0 00-1.54.95 5.45 5.45 0 00-1.14 1.29 3.08 3.08 0 00-.71.2c-.12 0-.26 0-.16-.26.4-.84 1.15-1.41 1.34-2.05a.56.56 0 00-.27-.7 2.91 2.91 0 00-2.82-.3c-.05.09-.06.04.03-.02zm8.79 19.18a.45.45 0 010 .22.36.36 0 01-.37.32c-.27 0-.49-.18-.48-.55a.61.61 0 01.61-.58.68.68 0 01.63.42c0 .07 0 .1-.07 0a.4.4 0 00-.13-.13c-.12.01-.3.11-.19.36zm11.47-11.27a1.29 1.29 0 00-.38-.28.64.64 0 00-.49 0 4.3 4.3 0 00-.62.29l-.11-.1c-.89-.56-1.19.2-1.77.5a.81.81 0 01-.41.09 2.26 2.26 0 01-.56-.08c-.22-.07-.2-.17-.14-.46.2-.87 1-2.09.94-2.85a.8.8 0 01.26-.29 1.1 1.1 0 01-.72-.56v-.06a1.2 1.2 0 00.85.37 2.53 2.53 0 00.6-.06c.38-.09.38 0 .6 0s.3-.1.28-.21 0-.06 0-.06c.24 0 .24-.13.24-.18a2.34 2.34 0 000-.51c0-.22-.13-.27-.19-.41a.53.53 0 000-.12.13.13 0 000-.1c-.06-.07-.41-.3-.44-.35a.13.13 0 010-.18c0-.05.09-.06.18-.15a.17.17 0 00-.07-.28 4.2 4.2 0 01-.54-.31 3.72 3.72 0 00-1.07-.53.76.76 0 00-.53 0 5.56 5.56 0 00-.65.32.93.93 0 00-.39.46.85.85 0 00-.56.34 1 1 0 00.34 1.22 5 5 0 01-1.6.7.36.36 0 00-.16-.45c-.89-.56-1.18.2-1.77.5a.77.77 0 01-.4.09 2.33 2.33 0 01-.57-.08c-.21-.07-.2-.17-.13-.46.19-.88 1-2.09.94-2.85a.85.85 0 01.27-.29 1.14 1.14 0 01-.74-.56v-.06a1.21 1.21 0 00.85.36 1.92 1.92 0 00.59 0c.38-.1.39 0 .6 0s.31-.1.28-.21 0-.05 0-.06c.24 0 .23-.12.23-.17a2.32 2.32 0 000-.52c0-.21-.13-.27-.19-.41a1 1 0 000-.12.11.11 0 000-.09c-.07-.08-.41-.3-.45-.36a.13.13 0 010-.18s.09 0 .19-.14a.18.18 0 00-.08-.29 3.41 3.41 0 01-.54-.31 3.43 3.43 0 00-1.06-.52.86.86 0 00-.54 0c-.13 0-.5.24-.64.32a1 1 0 00-.39.47.81.81 0 00-.56.34.91.91 0 00.34 1.21 5.07 5.07 0 01-1.63.71.36.36 0 00-.15-.47c-.89-.56-1.18.2-1.77.49a.77.77 0 01-.4.1 3 3 0 01-.57-.08c-.21-.08-.2-.17-.13-.46.2-.88 1-2.09.94-2.85a.87.87 0 01.27-.29 1.12 1.12 0 01-.74-.57v-.05a1.26 1.26 0 00.85.36 1.78 1.78 0 00.6-.06c.37-.09.38 0 .6 0s.3-.1.27-.21a.05.05 0 010-.06c.24 0 .24-.12.24-.17a2.49 2.49 0 000-.52c0-.21-.13-.27-.19-.41a.35.35 0 000-.12.15.15 0 000-.1c-.06-.07-.41-.29-.45-.35a.16.16 0 010-.18 1.67 1.67 0 00.19-.14.18.18 0 00-.07-.29 3.27 3.27 0 01-.54-.31 3.87 3.87 0 00-.75-.52.93.93 0 00-.54 0c-.12.05-.5.24-.64.32a1 1 0 00-.39.47.81.81 0 00-.56.34.91.91 0 00.33 1.26c-.34.49-3.94 1.16-5.79 2.69a6.34 6.34 0 00-2.14 4.23 2.86 2.86 0 01-.74 1.54 7.32 7.32 0 00-2.2 5.17c0 2.83 1.87 4.24 3.4 4.24a2.46 2.46 0 002.07-.83 6.81 6.81 0 000 .78c0 2.84 1.88 4.25 3.41 4.25a2.47 2.47 0 002-.82 6.23 6.23 0 000 .74c0 2.84 1.88 4.25 3.4 4.25 1.89 0 2.4-1.16 2.4-1.78a1.31 1.31 0 00-1.29-1.44 1.19 1.19 0 00-1.24 1.25 1 1 0 001.43.86c.06 0 .1 0 0 .06a1.81 1.81 0 01-1.15.35c-1.53 0-2.63-1.49-2.63-3.53a6.41 6.41 0 012.31-4.58.52.52 0 01.5-.09 2.28 2.28 0 001.8-.25A8.75 8.75 0 00127.2 18a5.31 5.31 0 00-.17 1.76c0 .17.09.95.14 1.24.12.77.75.41.82.35a5.63 5.63 0 00.61-.54c.11-.11.13 0 .09 0-.3.46-1 1.47-1 1.61s-.31.6-.36.71-.27.61-.32.76a.48.48 0 000 .39 1.3 1.3 0 00.25.34.19.19 0 00.32-.11 15.35 15.35 0 011.33-2.51c.29-.39.63-1 .79-1.22a11.51 11.51 0 012-2.34 10 10 0 001.13-1 6.13 6.13 0 011.65-1c.21-.09.48-.3.77-.42a4 4 0 00.73-.39c.13-.11.21-.23.13-.34zm-28.25 22.18a1.61 1.61 0 01-.74.33 2.8 2.8 0 01-.76 0 .79.79 0 01-.76-.32c-.25-.3-.13-1.06-.17-1.5 0-.2 0-.28-.15-.37s-.26-.07-.24-.28.14-.25.17-.39 0-.2.07-.39c.1-.48.09-1.22.69-1.36a2.45 2.45 0 011.53.37 4.46 4.46 0 01.63.79 1.26 1.26 0 01.28.73 2 2 0 00.17.79.87.87 0 01-.2.78 2.66 2.66 0 01-.52.82zm3.53 5.59c-.27-.09-.67.09-.86-.35a5.56 5.56 0 01-.39-.9c0-.14 0-.27-.08-.44a4.19 4.19 0 00-.16-.46c-.11-.48-.31-.28-.42-.76a2.85 2.85 0 01-.16-.44 2.15 2.15 0 00-.2-.48c-.1-.15-1.31-.64-.3-.81a1.57 1.57 0 00.9-.55 4 4 0 00.34-.44c.16-.21.28-.28.36-.47a2.36 2.36 0 00.31-.9 4.84 4.84 0 00-.13-.94 3.33 3.33 0 00-1.16-1.78 3.58 3.58 0 00-.88-.62l-.46-.18a1.05 1.05 0 00-.46-.09 3.6 3.6 0 01-.9-.24 3.67 3.67 0 00-.93 0c-.24 0-.48.07-.7 0a5.74 5.74 0 00-.74.05 14.05 14.05 0 00-1.46-.05c-.26 0-.55 0-.59.37s.12.48.4.69.43 1 .44 1.47a19 19 0 010 3c-.05.49 0 1 0 1.5v1.52c0 .28-.17.46-.14.74s0 .49 0 .76a2.53 2.53 0 01-.24 1.5c-.17.26-.48.33-.63.58s-.12.5.36.55a3.71 3.71 0 00.65 0l.78-.09c.25 0 .48.06.7 0a3 3 0 01.72 0 2.44 2.44 0 00.74-.08c.21 0 .81-.06.31-.44l-.6-.43a1 1 0 01-.43-.76v-.72c0-.21 0-.66-.34-.68-.07-.12.07-.22.14-.33a.6.6 0 00.13-.4 2.09 2.09 0 00.07-.36.92.92 0 00-.07-.4c0-.2-.22-.55-.17-.73a.67.67 0 01.66-.46c.31 0 .46-.09.74.14a4.1 4.1 0 01.64.71 2.25 2.25 0 01.5 1.33 4.3 4.3 0 00.48 1.51c.17.3.22.49.38.77a1.78 1.78 0 00.26.37c.17.2.19.27.31.41a1 1 0 001.47.28c.26-.17.61-.22.74-.52s.37-.7.07-.95zm-39.91-.47c0-.42-.31-1-.74-.48-.22.27-.4.85-.65 1.13s-.66.31-1.12.31H67.8a2 2 0 01-1.14-.27 1.56 1.56 0 01-.45-1.27 5.33 5.33 0 00.13-1.15 5.94 5.94 0 01-.21-1.2v-1.22c0-.4.27-1-.28-1.16a2.13 2.13 0 00.24-.74v-.82a4.88 4.88 0 000-.76c0-.28.1-.55.13-.81a1.38 1.38 0 01.31-.74 2.59 2.59 0 01.37-.37.79.79 0 00.3-.37c0-.14 0-.25-.22-.27h-1.11a5.63 5.63 0 01-1.13.14c-.43 0-.79-.08-1.19-.1s-1 .26-.43.7c.27.23.79.55.79 1.05v1.18a10.1 10.1 0 01.11 1.2c0 .44-.21.76-.21 1.2s.09.83.07 1.24-.15.77-.15 1.2a4.84 4.84 0 00.22 1.18c.1.43-.22.76-.19 1.22a1.37 1.37 0 01-.46 1.24c-.17.14-1.09.79-.38 1a9.93 9.93 0 001.12 0 3.42 3.42 0 001.16-.12 2.73 2.73 0 011.21.08 11.05 11.05 0 001.15 0 9.45 9.45 0 001.19 0c.4-.07.76 0 1.16 0s.8 0 1.18-.06.48-.51.48-1-.09-.81-.09-1.18zm12.36-3.37a8.09 8.09 0 00-.12.84c0 .34-.28.5-.33.82a2.36 2.36 0 01-.34.84 5 5 0 01-.48.84 7.38 7.38 0 01-.67.81 1.45 1.45 0 01-.8.4 4.66 4.66 0 01-1.63.07 1.39 1.39 0 01-.83-.21c-.24-.23-.22-.49-.22-.83a4.85 4.85 0 010-.84.83.83 0 00-.2-.82c-.26-.21 0-.56.06-.83a2 2 0 00-.08-.81 5.05 5.05 0 010-.86v-.84c0-.43-.4-.37-.26-.79s.15-.55.22-.83a3.93 3.93 0 000-.85 1.94 1.94 0 00-.2-.81.94.94 0 01.19-.86c.15-.27.32-.52.67-.5.55.09 1.1 0 1.66.07a1.37 1.37 0 01.81.43 3.29 3.29 0 00.81.59 3.84 3.84 0 011.17 1.59 8.13 8.13 0 01.5 1.66 2.83 2.83 0 01.1.89 3.37 3.37 0 01-.03.81zm2.08-2.76a3 3 0 00-.27-.77 3.72 3.72 0 00-1.26-1.54A6.12 6.12 0 0082.88 33c-.23-.07-.42-.31-.71-.41a3.32 3.32 0 00-.77-.3 3.91 3.91 0 00-1.52 0 1.42 1.42 0 01-.79 0 1.72 1.72 0 00-.79-.12c-.57 0-1.14.1-1.69.1-.15 0-.25.11-.41.09a3.5 3.5 0 01-.45-.07 2.78 2.78 0 00-.86 0c-.13.16 0 .28 0 .44s.26.11.36.19a1.28 1.28 0 01.33.37A2.49 2.49 0 0176 34a1.06 1.06 0 010 .76 5.46 5.46 0 000 .8 4.75 4.75 0 01-.14.76 3.64 3.64 0 000 .74c0 .26.15.48.12.81s0 .51 0 .78.09.44.14.76a.6.6 0 010 .35c-.07.16-.23.27-.26.41A1.84 1.84 0 0076 41c0 .27 0 .48.07.78a2.83 2.83 0 01-.21 1.52 1.63 1.63 0 01-.58.74.57.57 0 00-.19.74 7.58 7.58 0 001.51-.05 2.21 2.21 0 01.78-.07 4 4 0 00.75.08 2.54 2.54 0 01.78 0 3.7 3.7 0 00.7.14 2.76 2.76 0 01.81 0 7.28 7.28 0 00.78 0 1.92 1.92 0 00.77-.17 4.14 4.14 0 01.74-.23 1.72 1.72 0 00.79-.41 9.58 9.58 0 01.72-.66 4.22 4.22 0 00.59-.7c.29-.34.48-.37.71-.74s.2-.52.32-.76a2 2 0 00.21-.83 2.29 2.29 0 000-.74 2.58 2.58 0 01.07-.82 11 11 0 000-1.55c-.12-.39-.18-.62-.2-.89zm-60.48 6.66a6.52 6.52 0 01-.05-1.59c0-.67.05-1 0-1.68a9.35 9.35 0 01-.19-1.47 4.22 4.22 0 00.12-1.67 7.69 7.69 0 01-.13-1.54c.06-.49.11-1.36.13-1.43.31-.64 1.24-1.32.67-1.38a11.54 11.54 0 00-1.67-.08c-.29 0-.87.08-1.46.15-1.05.13.12.8.23 1.06.37 1 .13 1 .12 1.75a5.51 5.51 0 01.07 1.48c-.31.62-.16 1.28-1 1.28a10.5 10.5 0 01-1.39 0 6.08 6.08 0 00-1.63-.18c-.3 0-1.3.07-1.52-.12-.51-.51 0-1.09-.33-1.48s.16-1.1.16-1.56-.31-1.07.39-1.6.07-.87-.48-.82-1 .2-1.56.13a2.87 2.87 0 00-.78-.09c-.27.07-.51 0-.8.11l-.07.07c-.11.22.17.46.36.56a1.19 1.19 0 01.53.51 2.5 2.5 0 01.09.68 5.2 5.2 0 00.06.68 2.43 2.43 0 010 .66v.63a11.8 11.8 0 00.07 1.4 12.67 12.67 0 01-.11 1.29v1.36c0 .45.12.92.12 1.32a10.31 10.31 0 01-.17 1.36 1.51 1.51 0 01-.18.6 1.89 1.89 0 01-.63.58.65.65 0 00-.35.61c0 .26.43.26.59.29a.91.91 0 00.63 0 .92.92 0 01.71 0 4.44 4.44 0 01.57.09 1.13 1.13 0 00.7-.09 4.76 4.76 0 011.27-.24c.25 0 .49-.2 0-.48a4.65 4.65 0 01-.59-.3c-.47-.33-.41-1-.45-1.27a5.09 5.09 0 000-.71c-.05-.28.17-.46-.1-.7a6.38 6.38 0 00.17-1.56c.08-.79.75-.58 1.27-.58a9.93 9.93 0 011.53 0 9.28 9.28 0 001.58 0c.38 0 1.24 0 1.33.8a14.24 14.24 0 00.05 1.57c.09.53-.12 1 0 1.57.2.72-.83.88-.79 1.41s.91.3 1.27.37a3.35 3.35 0 001.55.13c.31-.07 1.51.23 1.17-.39s-.87-.86-1.08-1.49zm72.81-10.39a1.26 1.26 0 00-.81-.49 2 2 0 00-.74 0 3.9 3.9 0 01-.77 0 7.45 7.45 0 00-1.57-.09 7.84 7.84 0 01-1.15.14 4 4 0 00-.6 0c-.23 0-.35.14-.61.14a4 4 0 01-.57-.14h-.61a1.56 1.56 0 00-1.21.25c.07.35.59.62.88.88a1.72 1.72 0 01.48 1 10.14 10.14 0 01.17 1.06c0 .39-.19.68-.19 1.1s-.08.72-.08 1a3.82 3.82 0 00.1 1.1c.09.28-.09.76-.1 1a5.4 5.4 0 00.07 1.09c0 .34-.06.68-.06 1.07a4.74 4.74 0 01-.06 1.07 1.88 1.88 0 01-.55 1.06c-.21.18-1.12.59-.43.85a5.69 5.69 0 001 .09 4.63 4.63 0 001-.06 3.57 3.57 0 011 0h1.08a7.61 7.61 0 001-.05 6 6 0 011 0c.36 0 .69-.07 1 0s.8.12 1-.21a1.49 1.49 0 00.12-1.05c-.05-.37 0-.72 0-1.08s.06-.9-.51-.63c-.33.14-.52.6-.66.95a1.72 1.72 0 01-.84.9c-.39.16-.69.07-1.07.28a1.09 1.09 0 01-1 0 1.16 1.16 0 01-.74-.91v-1c0-.27-.15-.64-.13-1.08s.24-.64.17-1.08-.41-.79-.1-1.09c.5-.09 1 .44 1.51.51.34 0 .43.16.64.46s.34.51.7.28.14-.46.14-.71a5.15 5.15 0 000-.79 2.69 2.69 0 01-.07-.81 1.66 1.66 0 000-.78.38.38 0 00-.62-.21c-.26.25-.28.54-.6.77a2.91 2.91 0 01-.72.3c-.27.07-.56.16-.78-.19s0-1.08-.12-1.55-.26-.43-.16-.89a2.05 2.05 0 00.21-.72 5.7 5.7 0 00-.17-.74c0-.23.05-.64.22-.73a.9.9 0 01.8 0c.22 0 .56.27.75.21a1.86 1.86 0 01.76-.14 5.3 5.3 0 01.77.34 2.28 2.28 0 01.72.4c.35.34.43.5.69.78s.54.09.56-.3a4.46 4.46 0 00-.06-.72 2.31 2.31 0 00-.08-.84zm-40.39-.45a1.47 1.47 0 01-1.2-.13c-.57 0-1.07.11-1.62.18-.38.07-.48.38 0 .56s.46.39.75.66a2 2 0 01.45 1.62 2.12 2.12 0 00.16.83 3.8 3.8 0 010 .89 7.45 7.45 0 00-.05.79 5.57 5.57 0 00.16.85 2.15 2.15 0 010 .84c0 .32-.07.59-.11.85s-.4.48-.4.84.21.5.07.87a2.24 2.24 0 01-1.15 1.48 7.78 7.78 0 01-1.6.2 3.65 3.65 0 01-.81 0c-.33-.06-.57 0-.86-.16a5.09 5.09 0 01-.78-.64 2.67 2.67 0 01-.7-.76 2.31 2.31 0 01-.21-.83c0-.32-.1-.6-.1-.86v-.82a6.07 6.07 0 000-.85v-.83c0-.25.17-.51.1-.89 0-.22 0-.57-.07-.8a1.27 1.27 0 01-.1-.88c.05-.27.26-.48.19-.82s-.19-.65.07-.86h.31c.22-.59.92-.36 1-.59.43-.76-.36-.58-.6-.65a4.18 4.18 0 00-1.22-.2 10.8 10.8 0 01-1.26 0 10.12 10.12 0 00-1.22 0c-.38 0-1 .35-.19.93a1.61 1.61 0 01.86.89 3.33 3.33 0 01.07 1.21 3.79 3.79 0 00-.17 1.24 3 3 0 010 1.22 2.7 2.7 0 00.09 1.29c.07.42.08.86.14 1.27S48 41 48 41.4a6.32 6.32 0 00.17 1.29A2.35 2.35 0 0049 44a4.15 4.15 0 001.15.59 6.6 6.6 0 001.21.19h1.24a6.07 6.07 0 002.4-.31 6.78 6.78 0 001.22-.81c.47-.35.9-.65 1-1.17.07-.23.1-.88.14-1.11a10.12 10.12 0 00.1-1.36 8.32 8.32 0 000-1.23 4.27 4.27 0 01-.06-1.22c0-.46-.07-.85 0-1.33s.08-.81.13-1.22a2.23 2.23 0 01.29-1.23c.31-.39 1-.87 1-1.17.04-.62-.49-.48-.96-.4zM9.27 39a8.85 8.85 0 00-.95-1.37 2.63 2.63 0 00-1.37-1 6.27 6.27 0 01-1.4-.63c-.48-.25-.93-.47-1.33-.69a3.5 3.5 0 01-1.28-1.07A1.73 1.73 0 013 32.82a1.78 1.78 0 011.18-1.06 3.4 3.4 0 012.7.25 9.8 9.8 0 011.3 1.08c.32.35.42.94 1.09 1.2a.48.48 0 00.2-.75c-.14-.23-.1-.25 0-.45s0-.25-.1-.47a1 1 0 01-.12-.82 1.26 1.26 0 00-.16-.88c0-.08 0-.1-.1-.16h-.21a1.18 1.18 0 00-.42-.15c-.28 0-.58-.08-.84-.1a11.69 11.69 0 00-1.73-.08 6.8 6.8 0 00-3.1.61 3.16 3.16 0 00-1.32 1.29A4.54 4.54 0 00.65 34c-.06.26 0 .53 0 .79a1.53 1.53 0 00-.05.8c.19.55.42 1.06.64 1.59.06.15.08.29.26.37s.26 0 .38.08c.28.14.4.49.76.51.55 0 1 .15 1.59.17.1.53.73.79 1.11 1 .54.26.92.77 1.34 1 .67.32.63.59.73 1.2A1.85 1.85 0 017 42.86a2 2 0 01-1.27.67 4.23 4.23 0 01-1.43 0A2 2 0 012.94 43c-.44-.52-.89-.92-1.23-1.27-.52-.53-.54-1.1-1.12-1.15S0 41.1 0 41.59A5.21 5.21 0 00.06 43c.16.49-.12 1 .73 1.3.36.13 1 .19 1.3.29a6.17 6.17 0 001.43.41 5.14 5.14 0 001.34-.12c.51-.13 1.07-.15 1.41-.21a6.06 6.06 0 001.35-.43 2.7 2.7 0 001.33-1 4.15 4.15 0 00.74-1.37 3.82 3.82 0 000-1.43A3 3 0 009.27 39zm31.26.21a1.36 1.36 0 01-.17.89c-.26.51-.26 1.18-.47 1.7s-.41.49-.72.77a3.17 3.17 0 01-.79.6 8.57 8.57 0 01-.86.27 2.52 2.52 0 01-.84.19c-.3 0-.5-.25-.81-.28a1.87 1.87 0 01-.78-.21 3.74 3.74 0 00-.91-.36 1.28 1.28 0 01-.72-.65 3.93 3.93 0 01-.47-.88 2 2 0 01-.06-.85c0-.32-.09-.55-.09-.87v-.86a8.27 8.27 0 00.12-.85c0-.42-.4-.49-.28-.86a3.12 3.12 0 01.48-.87 5.83 5.83 0 00.35-.85 5 5 0 011.31-1.57 2.84 2.84 0 011.67-.67 3.64 3.64 0 01.87 0c.3.05.64.07.78.42s.48.55.69.8a6.25 6.25 0 01.57.81c.34.57 1.27.81 1.18 1.59 0 .3-.17.53-.19.88a7.59 7.59 0 00-.07.81 4.26 4.26 0 00.21.91zm2.62-1.94c-.16-.47-.33-.77-.48-1.18a4.29 4.29 0 00-.83-1.09c-.33-.39-.55-.81-.88-1.18a4.71 4.71 0 00-2.27-1.4 4.58 4.58 0 00-1.12-.1 5.72 5.72 0 00-1.17 0 6.43 6.43 0 00-2.25.35 11.44 11.44 0 00-1.14.48 4.58 4.58 0 00-1.08.88 5.68 5.68 0 00-.81 1.13 8.16 8.16 0 00-.66 1.15 2.69 2.69 0 00-.3 1.14v1.2a3.15 3.15 0 000 1.08 3.58 3.58 0 00.5 1.26 7.21 7.21 0 00.76 1.13c.37.35.48.78.82 1.16a6.47 6.47 0 001.1.87 3 3 0 001.14.51 12.69 12.69 0 002.3.14h1.12a3.67 3.67 0 001.14-.28 4.45 4.45 0 001.13-.57 5.06 5.06 0 001.15-.95 7.62 7.62 0 00.91-1c.28-.37.38-.82.62-1.19a2.31 2.31 0 00.24-1.16c0-.43-.05-.76 0-1.2a2.69 2.69 0 00.06-1.17zm70.66-4.72h.29c.3 0 .39-.08.39-.26s-.07-.23-.35-.23h-.33zm0 .9h-.25v-1.58h.61c.38 0 .57.14.57.45a.42.42 0 01-.42.44l.46.7h-.27l-.43-.7h-.27zm.29-1.95a1.16 1.16 0 101.13 1.15 1.12 1.12 0 00-1.13-1.14zm0-.23a1.38 1.38 0 11-1.4 1.38 1.38 1.38 0 011.4-1.37zm-55-18.75h-.52c-.34-.07-.39-.19-.74-.23h-.65c-.45.06-.81.18-1.27.25-.11 0-.24 0-.3.1a.28.28 0 00.14.34 2.78 2.78 0 00.67.42c.23.08.49.15.55.44a3.16 3.16 0 01.17.64c0 .53.16.87.18 1.38s-.12.86-.07 1.3a1.56 1.56 0 010 .31c0 .12.08.23.12.35a2.25 2.25 0 01.08.69 4.63 4.63 0 01-.17 1.32 3.06 3.06 0 00.09 1.38h-.21c-.4-.41-.34-.78-.88-1.05a2.31 2.31 0 01-.93-1 6.86 6.86 0 00-1-1.09 15.27 15.27 0 01-1.07-1.12 10.5 10.5 0 00-1-1.23c-.27-.36-.7-.92-.91-1.15-.45-.48-.31-.83-.27-1.27s-.8-.53-1-.53a9.59 9.59 0 01-1.11-.1c-.45-.05-.8.08-1.24 0s-.64.41.07.8a1.7 1.7 0 01.69 1.09 8.83 8.83 0 01.01 2.44 13.3 13.3 0 00.06 2.56v2.42a4.26 4.26 0 01-.09 1.23 2.46 2.46 0 01-.78 1.19c-.57.46-.08.79.41.85s.78 0 1.21.05.79 0 1.19 0 1 .16 1.2-.09c.31-.51-.45-.64-.74-.87a5.26 5.26 0 01-1-1 2.55 2.55 0 01-.31-1.34c0-.39-.07-.9-.07-1.2a10.38 10.38 0 010-1.25c0-.46.15-.71.19-1.29a6.13 6.13 0 000-1.21c0-.38-.41-1 .23-1 .22.19 0 .4.14.54s.25.34.36.56a1.64 1.64 0 00.38.48c.24.25.31.39.48.57a7.32 7.32 0 01.93 1.07 5 5 0 001.08 1v.11c-.16.44.41.9.83 1.22a3.63 3.63 0 01.58.62 5.76 5.76 0 01.5.63 3.93 3.93 0 00.5.58 7.32 7.32 0 00.62.64 1.39 1.39 0 01.39.64.84.84 0 00.52.56c.32.12 1 .32 1.13-.23a6.72 6.72 0 00.06-1.34 3.18 3.18 0 000-.69c0-.23-.13-.47-.14-.65v-1.35a6.49 6.49 0 010-1.32v-1.34a5.93 5.93 0 000-1.33v-.65a1.85 1.85 0 010-.71 2.66 2.66 0 00.1-.6 3.36 3.36 0 01.19-.74c.05-.14.17-.41.26-.6s.32-.31.55-.6.1-.55-.4-.59zm15.51 11.64c-.6-.39-.86-1.3-1.52-1.47s-1.19-1.2-1.64-1.64a16 16 0 00-1.65-1.59c-.62-.44-1.38-1-.57-1.75l1.65-1.52c.65-.6.71-.37 1.84-1.43a5.71 5.71 0 012-1.1c.92-.37.55-1.27-.59-.93s-1.29-.13-1.74-.07c-.74.09-2.1-.34-1.48.74.52.9.43 1.1-.53 1.62-.31.16-.62.73-.89 1.06s-.48.16-.64.3c-.67.64-1.24 1.15-1.84 1.68h-.1c-.35-.16 0-.4 0-.6a3 3 0 010-.67c0-.28.18-.37.12-.69a1.69 1.69 0 01-.14-.65c0-.19.09-.48.1-.62a1.77 1.77 0 000-.33.94.94 0 01.08-.34c.11-.14.16-.19.25-.32a1.71 1.71 0 01.29-.33c.22-.22.5-.43.45-.67a1.81 1.81 0 00-1.17-.18c-.6.11-1.26.07-1.84.2-.35.07-2 .15-1.09.7.59.33.57 1.26.62 1.84.08.74.43 1.2 0 2.1a8 8 0 00-.08 1.78c0 .66.39 1.47.26 1.84a5.11 5.11 0 00-.16 2 7.79 7.79 0 01-.6 1.71c0 .93.7.56 1.39.44a7.24 7.24 0 011.86.07c1.36.1.34-.8.1-1.29a3.39 3.39 0 01-.55-2.12c0-.09-.12-1.45.07-1.63.67-.56 1.27.76 1.57 1a23.68 23.68 0 001.68 1.75 2.58 2.58 0 011.12 1.8c.15.64.93.17 1.57.32a8.07 8.07 0 001.85.17c1.21.03.58-.8-.05-1.18zm26.72-11.49a2.07 2.07 0 01-1.3-.22 5.26 5.26 0 00-1.31-.09c-.84-.11-.21.77 0 1 .42.44.69.71.24 1.47-.1.17-.53.84-.77 1.16a10.52 10.52 0 01-1 1.37h-.1a2.59 2.59 0 01-.53-.7c-.09-.09-.24-.29-.35-.32s-.26 0-.39-.07a.65.65 0 01-.16-.36 2.33 2.33 0 00-.24-.42 2.52 2.52 0 01-.46-.79 2.58 2.58 0 000-.39c-.05-.13-.12-.23-.19-.39a.37.37 0 010-.39.89.89 0 00.19-.43c0-.24.15-.63-.1-.72s-.54 0-.81 0c-.47 0-.85.22-1.31.21s-.84 0-1.31 0c-.31 0-1.29.17-.89.56s.84.78 1.07 1a8.08 8.08 0 011.11 1.35 4.53 4.53 0 01.88 1.33c.19.46.81.78.86 1.16.12.66.83.75 1 1.36a5.7 5.7 0 010 1.31v1.36a3.18 3.18 0 000 1.34 1.23 1.23 0 01-.53 1.35c-.47.37-.84.65.1.75.29 0 .9-.15 1.24-.12a11.11 11.11 0 001.34.14c.41 0 1.07.13 1.24-.05.52-.55-.17-.95-.52-1.29a2.53 2.53 0 01-.46-1.38 2.86 2.86 0 01-.17-1.34 13.26 13.26 0 00.13-1.42c0-.49-.17-.88 0-1.34a14.15 14.15 0 01.81-1.38 7.58 7.58 0 01.89-1.28 5.08 5.08 0 00.93-1.34 2.73 2.73 0 011.07-1.13c.63-.29.47-1.07-.2-.86zM87 13.2a1.25 1.25 0 00-.8-.49 2.1 2.1 0 00-.75 0 3.26 3.26 0 01-.77 0 7.39 7.39 0 00-1.56-.09 9.7 9.7 0 01-1.16.15 3 3 0 00-.6 0c-.22 0-.34.14-.6.14a3.39 3.39 0 01-.57-.14h-.62a1.54 1.54 0 00-1.2.25c.07.35.58.62.88.88a1.78 1.78 0 01.48 1 9.56 9.56 0 01.17 1.05c0 .39-.19.68-.19 1.1s-.09.72-.09 1a4.28 4.28 0 00.11 1.1 3.68 3.68 0 01-.11 1 6.5 6.5 0 00.07 1.1v1.06a4.22 4.22 0 01-.07 1.07 1.77 1.77 0 01-.62 1.09c-.2.18-1.12.58-.43.85a5.8 5.8 0 001 .09 3.78 3.78 0 001.06-.06 3.57 3.57 0 011 0h1.08a7.61 7.61 0 001-.05 8.9 8.9 0 011 0c.36 0 .68-.07 1 0s.81.12 1-.22A1.51 1.51 0 0087 24c-.06-.37 0-.72 0-1.08s0-.9-.52-.63c-.33.14-.51.6-.65.95a1.83 1.83 0 01-.84.91c-.4.15-.69.07-1.07.28a1.18 1.18 0 01-1 0 1.15 1.15 0 01-.73-.92v-1c0-.27-.15-.64-.14-1.08s.24-.64.18-1.08-.42-.79-.11-1.09c.5-.09 1 .44 1.51.51.35.05.43.16.64.46s.34.51.71.28.14-.46.14-.7a6.94 6.94 0 000-.8 2.4 2.4 0 01-.07-.81 1.67 1.67 0 000-.78.38.38 0 00-.61-.21c-.26.25-.28.55-.61.78a3.67 3.67 0 01-.72.3c-.26.07-.55.15-.78-.2s0-1.08-.11-1.55-.26-.43-.16-.88a2.45 2.45 0 00.21-.73 4.44 4.44 0 00-.18-.74c0-.23.06-.64.23-.72a.8.8 0 01.79-.06c.22.06.57.27.76.21a1.82 1.82 0 01.75-.14 5.41 5.41 0 01.78.34 2.52 2.52 0 01.72.4c.34.34.43.5.69.78s.53.09.55-.3a5.94 5.94 0 000-.72 2.05 2.05 0 00-.36-.78zm-61.18-2.13c-.16 0-.74-.13-1.17-.17a4.86 4.86 0 00-1.22 0c-.59.21-.59.82-.7 1.23a4.9 4.9 0 01-.51 1.31c-.22.4-.4 1-.64 1.36a7.44 7.44 0 00-.58 1.35 7.33 7.33 0 00-.41 1.31 6.15 6.15 0 01-.26 1.43c-.12.31-.54.76-.52 1.25s-.44.69-.92.63-.79-.61-1-1a9.23 9.23 0 01-.32-1.29 7.62 7.62 0 00-.6-1.39 6.58 6.58 0 00-.73-1.26c-.2-.33-.3-.86-.56-1.29a8 8 0 00-.74-1.19 1.2 1.2 0 01-.41-1.41c.08-.37.36-1-.52-1.08-.22 0-.84.08-1.2 0a5.1 5.1 0 00-1.23 0c-.62.14-.89-.16-1.37-.08-.14 0-.28 0-.38.12a1 1 0 00.5.86c.22.14.67.39.75.57.16.45-.08.53.2 1a1.46 1.46 0 01.34.92 3.77 3.77 0 01-.14.86 1 1 0 000 .92 1.21 1.21 0 01.1 1 4.3 4.3 0 000 .9c.06.59-.06 1.18 0 1.8a2.71 2.71 0 010 1c0 .18-.2.63-.26.88-.1.59 0 1.2-.08 1.82a2 2 0 01-.4.91c-.23.33-.73.41-.75.72s.4.31.65.32a5.6 5.6 0 00.92 0c.64 0 1.15.08 1.77.08.28 0 .74-.11.58-.58-.06-.22-.52-.63-.64-.87s-.56-.62-.56-.88.21-.66.18-1a28.5 28.5 0 01-.3-3.64 6.37 6.37 0 00-.06-.9 6 6 0 01.16-1c.06-.57-.3-1.25-.1-1.86.24 0 .42.33.5.49a2.92 2.92 0 01.22.72 7 7 0 00.42.67c.2.35.2.35.4.72s.28.39.42.63a5 5 0 01.29.67c.1.29.1.45.2.7s.2.45.36.71a2 2 0 00.5.64.88.88 0 01.32.65c.12.53 1.07.78.77 1.27-.16.28 0 .41.06.69a5.19 5.19 0 00.32.7c.08.2.26.45.34.67s.24.57.5.53c.34-.55.38-.9.67-1.32a6.24 6.24 0 00.64-1.4 7.38 7.38 0 01.56-1.34l.71-1.41a12 12 0 00.62-1.37 5.78 5.78 0 00.22-.67 1.46 1.46 0 01.1-.35 2.21 2.21 0 01.08-.35c.2-.31.3-.43.44-.69a2.51 2.51 0 00.2-.72c.06-.24.19-.45.23-.69a.85.85 0 01.38-.64c.4.14.26.66.22.86a8.19 8.19 0 00-.12 1 8.2 8.2 0 010 1 7.28 7.28 0 00-.16 1v2c.08.62-.22 1.25-.22 2 0 .28.1.63.12.94a1.18 1.18 0 01-.29 1c-.3.32-.68.47-.64.89 0 .09 0 .35.14.45a.72.72 0 00.5.07 6.88 6.88 0 01.95.08 6.14 6.14 0 00.95-.08c.4 0 .6-.19 1-.23s.6.08 1-.24c.1-.54-.76-.8-.84-1.21s.12-.74-.06-1.33a4.06 4.06 0 01-.14-1.3 4 4 0 01.14-1.37c.14-.51-.08-.72-.08-1.29a10 10 0 010-1.33c.06-.45.1-.86.14-1.33a9.81 9.81 0 00.12-1.33 7.17 7.17 0 010-1.32c.08-.43.88-.84.91-1.23-.05-.77-.28-.85-.98-.87zm15.31 8.69a1.23 1.23 0 01-.17.88 17.09 17.09 0 00-.46 1.7c-.16.42-.41.49-.72.77a3.42 3.42 0 01-.8.6 6 6 0 01-.85.27 2.58 2.58 0 01-.85.19c-.29 0-.5-.25-.81-.28a1.68 1.68 0 01-.77-.21 4.08 4.08 0 00-.91-.36 1.33 1.33 0 01-.73-.65 3.89 3.89 0 01-.46-.88 2 2 0 01-.07-.85c0-.32-.09-.55-.09-.86v-.87c0-.28.16-.57.12-.85s-.39-.49-.27-.86a2.69 2.69 0 01.48-.87 6.55 6.55 0 00.34-.85 3.29 3.29 0 01.59-.86 3.46 3.46 0 01.72-.71 3 3 0 011.65-.72 3.72 3.72 0 01.88 0c.29.05.64.07.77.42s.49.55.69.8a6.25 6.25 0 01.57.81c.34.57 1.27.81 1.19 1.59A6.77 6.77 0 0041 18a5.67 5.67 0 00-.07.82 4.59 4.59 0 00.2.94zm2.62-1.94c-.15-.48-.33-.78-.48-1.19a3.89 3.89 0 00-.83-1.13c-.32-.39-.55-.81-.88-1.18a4.62 4.62 0 00-2.27-1.4 4.46 4.46 0 00-1.11-.1 5.72 5.72 0 00-1.17 0 6.77 6.77 0 00-2.26.35 11.26 11.26 0 00-1.13.48 4.63 4.63 0 00-1.09.88 5.63 5.63 0 00-.8 1.13 7.28 7.28 0 00-.66 1.15 2.78 2.78 0 00-.31 1.19v1.2a3.08 3.08 0 000 1.07 3.39 3.39 0 00.49 1.26 8 8 0 00.76 1.13c.38.35.48.77.83 1.16a6.1 6.1 0 001.1.87 2.94 2.94 0 001.13.51 12.8 12.8 0 002.31.14h1.12a3.41 3.41 0 001.17-.34 4.51 4.51 0 001.14-.57 5 5 0 001.11-.88 8.44 8.44 0 00.92-1.09c.27-.37.38-.82.62-1.18a2.61 2.61 0 00.24-1.17c0-.42-.05-.76 0-1.2a2.82 2.82 0 00.05-1.09z" fill="#fff5e9" data-name="Layer 2"/></svg>